<mxfile host="app.diagrams.net" modified="2022-01-14T18:29:36.494Z" agent="5.0 (Macintosh; Intel Mac OS X 10_14_6) AppleWebKit/537.36 (KHTML, like Gecko) Chrome/97.0.4692.71 Safari/537.36" etag="gttxNJVbNZVAePOAe2WC" version="16.2.7" type="github">
  <diagram id="jHNLehE7tunLNBtfH-9b" name="Page-1">
    <mxGraphModel dx="1186" dy="741" grid="1" gridSize="10" guides="1" tooltips="1" connect="1" arrows="1" fold="1" page="1" pageScale="1" pageWidth="850" pageHeight="1100" math="0" shadow="0">
      <root>
        <mxCell id="0" />
        <mxCell id="1" parent="0" />
        <mxCell id="HSXUUGyqO3cy-qLkSfRi-5" style="edgeStyle=orthogonalEdgeStyle;rounded=0;orthogonalLoop=1;jettySize=auto;html=1;exitX=1;exitY=0.5;exitDx=0;exitDy=0;entryX=0;entryY=0.5;entryDx=0;entryDy=0;" edge="1" parent="1" source="HSXUUGyqO3cy-qLkSfRi-2" target="HSXUUGyqO3cy-qLkSfRi-4">
          <mxGeometry relative="1" as="geometry" />
        </mxCell>
        <mxCell id="HSXUUGyqO3cy-qLkSfRi-2" value="" style="swimlane;startSize=0;" vertex="1" parent="1">
          <mxGeometry x="40" y="40" width="200" height="200" as="geometry" />
        </mxCell>
        <mxCell id="HSXUUGyqO3cy-qLkSfRi-3" value="Config nodes" style="whiteSpace=wrap;html=1;" vertex="1" parent="1">
          <mxGeometry x="90" y="70" width="120" height="60" as="geometry" />
        </mxCell>
        <mxCell id="HSXUUGyqO3cy-qLkSfRi-7" style="edgeStyle=orthogonalEdgeStyle;rounded=0;orthogonalLoop=1;jettySize=auto;html=1;exitX=1;exitY=0.5;exitDx=0;exitDy=0;" edge="1" parent="1" source="HSXUUGyqO3cy-qLkSfRi-4" target="HSXUUGyqO3cy-qLkSfRi-6">
          <mxGeometry relative="1" as="geometry" />
        </mxCell>
        <mxCell id="HSXUUGyqO3cy-qLkSfRi-4" value="Realtime generate CSS" style="rhombus;whiteSpace=wrap;html=1;" vertex="1" parent="1">
          <mxGeometry x="290" y="70" width="140" height="140" as="geometry" />
        </mxCell>
        <mxCell id="HSXUUGyqO3cy-qLkSfRi-6" value="Realtime display&lt;br&gt;design changes" style="whiteSpace=wrap;html=1;aspect=fixed;" vertex="1" parent="1">
          <mxGeometry x="480" y="70" width="140" height="140" as="geometry" />
        </mxCell>
      </root>
    </mxGraphModel>
  </diagram>
</mxfile>
